<svg width="32" height="32" viewBox="0 0 32 32" fill="none" xmlns="http://www.w3.org/2000/svg">
<circle cx="15.9362" cy="16.0546" r="15.2358" fill="#FDDA25"/>
<path fill-rule="evenodd" clip-rule="evenodd" d="M7.07357 17.27C6.61537 16.8118 6.61537 16.069 7.07357 15.6108L15.2865 7.39778C15.7447 6.93958 16.4876 6.93958 16.9458 7.39778L25.1588 15.6108C25.617 16.069 25.617 16.8118 25.1588 17.27C24.7006 17.7282 23.9577 17.7282 23.4995 17.27L17.2895 11.06L17.2895 24.6534C17.2895 25.3014 16.7642 25.8267 16.1162 25.8267C15.4682 25.8267 14.9429 25.3014 14.9429 24.6534L14.9429 11.06L8.73284 17.27C8.27464 17.7282 7.53176 17.7282 7.07357 17.27Z" fill="#05046A"/>
</svg>
